HIERARCHY
ROOT Hips
{
	OFFSET	0.00	0.00	0.00
	CHANNELS 6 Xposition Yposition Zposition Zrotation Xrotation Yrotation
	JOINT LeftUpperLeg
	{
		OFFSET	 0.100000	-0.066564	-0.000554
		CHANNELS 3 Zrotation Xrotation Yrotation
		JOINT LeftLowerLeg
		{
			OFFSET	 0.002447	-0.463436	-0.005172
			CHANNELS 3 Zrotation Xrotation Yrotation
			JOINT LeftFoot
			{
				OFFSET	-0.002447	-0.420480	-0.020576
				CHANNELS 3 Zrotation Xrotation Yrotation
				JOINT LeftToes
				{
					OFFSET	 0.003734	-0.104922	 0.126407
					CHANNELS 3 Zrotation Xrotation Yrotation
					End Site
					{
						OFFSET	 0.000000	 0.000000	 0.059955
					}
				}
			}
		}
	}
	JOINT RightUpperLeg
	{
		OFFSET	-0.100000	-0.066564	-0.000554
		CHANNELS 3 Zrotation Xrotation Yrotation
		JOINT RightLowerLeg
		{
			OFFSET	-0.002447	-0.463436	-0.005146
			CHANNELS 3 Zrotation Xrotation Yrotation
			JOINT RightFoot
			{
				OFFSET	 0.002447	-0.420479	-0.020602
				CHANNELS 3 Zrotation Xrotation Yrotation
				JOINT RightToes
				{
					OFFSET	-0.003734	-0.104922	 0.126407
					CHANNELS 3 Zrotation Xrotation Yrotation
					End Site
					{
						OFFSET	-0.000000	 0.000000	 0.059955
					}
				}
			}
		}
	}
	JOINT Spine
	{
		OFFSET	 0.000000	 0.099235	-0.012273
		CHANNELS 3 Zrotation Xrotation Yrotation
		JOINT Chest
		{
			OFFSET	-0.000001	 0.116455	-0.014223
			CHANNELS 3 Zrotation Xrotation Yrotation
			JOINT UpperChest
			{
				OFFSET	 0.000001	 0.133602	-0.016265
				CHANNELS 3 Zrotation Xrotation Yrotation
				JOINT LeftShoulder
				{
					OFFSET	 0.061058	 0.091105	 0.007056
					CHANNELS 3 Zrotation Xrotation Yrotation
					JOINT LeftUpperArm
					{
						OFFSET	 0.133942	-0.002659	-0.026009
						CHANNELS 3 Zrotation Xrotation Yrotation
						JOINT LeftLowerArm
						{
							OFFSET	 0.274047	 0.000000	 0.000000
							CHANNELS 3 Zrotation Xrotation Yrotation
							JOINT LeftHand
							{
								OFFSET	 0.276145	 0.000000	 0.000000
								CHANNELS 3 Zrotation Xrotation Yrotation
								End Site
								{
									OFFSET	 0.165687	 0.000000	 0.000000
								}
							}
						}
					}
				}
				JOINT Neck
				{
					OFFSET	 0.000000	 0.150325	 0.007929
					CHANNELS 3 Zrotation Xrotation Yrotation
					JOINT Head
					{
						OFFSET	 0.000000	 0.103218	 0.031424
						CHANNELS 3 Zrotation Xrotation Yrotation
						End Site
						{
							OFFSET	 0.000000	 0.061931	 0.018855
						}
					}
				}
				JOINT RightShoulder
				{
					OFFSET	-0.061057	 0.091105	 0.007056
					CHANNELS 3 Zrotation Xrotation Yrotation
					JOINT RightUpperArm
					{
						OFFSET	-0.133943	-0.002660	-0.026009
						CHANNELS 3 Zrotation Xrotation Yrotation
						JOINT RightLowerArm
						{
							OFFSET	-0.274047	 0.000000	 0.000000
							CHANNELS 3 Zrotation Xrotation Yrotation
							JOINT RightHand
							{
								OFFSET	-0.276145	 0.000000	 0.000000
								CHANNELS 3 Zrotation Xrotation Yrotation
								End Site
								{
									OFFSET	-0.165687	 0.000000	 0.000000
								}
							}
						}
					}
				}
			}
		}
	}
}
MOTION
Frames:    7
Frame Time: 0.03333334
-0.088040	 1.068610	 0.502380	-6.056461	 8.219997	-4.927553	 4.253813	-11.077990	 8.979253	-0.000131	 0.077881	 0.000279	 2.862069	 2.205322	 4.213284	-0.000513	 0.713953	 0.000430	 5.116450	-25.429880	 0.701325	-0.188729	 19.750660	 0.024516	 0.520334	 15.309290	-12.242830	-0.000525	-12.325160	 0.000454	 0.192853	 1.088871	-0.688336	-0.000000	 0.000000	 0.000000	 0.400213	 2.179192	-1.384083	 4.327709	 1.620912	 9.476523	-77.262300	-8.079475	-4.756987	-29.889630	 22.559860	-65.331600	 29.442750	 13.163460	-11.809350	 2.965327	 4.635537	 5.960215	 2.969597	 4.876492	 5.769371	-2.236051	 0.985393	-15.597370	 85.862580	-0.097629	 11.842180	 34.931810	 38.392080	 65.500600	-35.920260	 0.097085	 20.076750
-0.093980	 1.067910	 0.492180	-5.907719	 8.270607	-4.589978	 4.484283	-11.809810	 8.731378	-0.000758	 0.082004	 0.000127	 2.431423	 2.880360	 4.018005	-0.000481	 0.727710	-0.000568	 5.364267	-28.490130	 3.603564	-0.059149	 23.701590	-0.003919	 2.634562	 17.257800	-12.662860	 0.001220	-14.957700	 0.000214	 0.225314	 0.874982	-0.552427	-0.000000	 0.000000	 0.000000	 0.459856	 1.748968	-1.107613	 4.151747	 1.533775	 9.653053	-77.118410	-7.263505	-2.696456	-29.892340	 24.563430	-65.590840	 27.451620	 13.591330	-12.419470	 2.854785	 4.650919	 5.913140	 2.811689	 5.065880	 5.613582	-2.357394	 0.957295	-15.210860	 86.082180	 0.016325	 11.683850	 36.722350	 37.718050	 63.396350	-34.501940	-0.766060	 20.643190
-0.100320	 1.066960	 0.481230	-5.670969	 8.172212	-4.072426	 4.602007	-12.478410	 8.075105	-0.000544	 0.093333	 0.000110	 1.834704	 3.579627	 3.999439	 0.000564	 0.774663	 0.000293	 5.613896	-30.972930	 6.532485	 0.104306	 26.636140	-0.038232	 4.092401	 19.992590	-12.469000	-0.000621	-18.135060	 0.000070	 0.234880	 0.722144	-0.422022	-0.000000	 0.000000	 0.000000	 0.476660	 1.443117	-0.849061	 3.875981	 1.704955	 9.787332	-77.485060	-6.722260	-1.266721	-30.112760	 26.252200	-65.070590	 24.611130	 13.938510	-12.473930	 2.844132	 5.163569	 5.746818	 2.847316	 5.455225	 5.470878	-2.959229	 1.412753	-14.813020	 86.868580	-0.262592	 11.470570	 38.035280	 37.788830	 61.826280	-33.272370	-1.515341	 20.579050
-0.109350	 1.065410	 0.464980	-5.156658	 7.946105	-3.095081	 4.511006	-13.435200	 6.959607	-0.000727	 0.091706	-0.000306	 0.941562	 4.659160	 3.889194	 0.000003	 0.822491	-0.000105	 5.096355	-33.252230	 9.225080	 0.072731	 32.695950	-0.021724	 6.280839	 18.904390	-9.905051	 0.000064	-18.304470	 0.000354	 0.109351	 0.617187	-0.240387	-0.000000	 0.000000	 0.000000	 0.221891	 1.234836	-0.481196	 3.564498	 1.677176	 10.016420	-78.727200	-7.018317	-0.143416	-29.648290	 28.537370	-63.676160	 21.921970	 15.670560	-13.320240	 2.925552	 6.026736	 5.646665	 3.218448	 6.216997	 5.271998	-3.256119	 1.766833	-14.390300	 87.646900	-0.993800	 11.366830	 40.293230	 37.826200	 59.273850	-29.114510	-3.867210	 18.847550
-0.117600	 1.063520	 0.450540	-4.784413	 7.653726	-2.097310	 4.475821	-14.207970	 6.345079	-0.000673	 0.083647	 0.000037	 0.090538	 5.609211	 3.302100	 0.000121	 0.884081	 0.000295	 2.248700	-26.080790	 10.071610	-0.342454	 37.498390	 0.116666	 9.372819	 9.257419	-5.289299	-0.000182	-23.737260	 0.001224	 0.100866	 0.535372	-0.157100	-0.000000	 0.000000	 0.000000	 0.202914	 1.069848	-0.314252	 3.589592	 1.657080	 9.795142	-79.403520	-7.466241	 0.363953	-29.296900	 29.895140	-62.381250	 19.361480	 15.283020	-11.785370	 3.513075	 6.911141	 5.388443	 3.553580	 7.064502	 5.212320	-2.968954	 1.974791	-14.553750	 87.947240	-0.940156	 11.451010	 41.777720	 37.547890	 57.187100	-26.533040	-6.079083	 17.008520
-0.126330	 1.061370	 0.435230	-4.555851	 7.420334	-0.970890	 4.574924	-15.104610	 5.928673	-0.000173	 0.083693	 0.000474	-0.869146	 6.437653	 2.447651	 0.001057	 1.133177	 0.000159	 0.470014	-16.238540	 12.303030	-0.351368	 38.064780	 0.121489	 12.218000	 1.744582	-0.935158	-0.000014	-17.996720	 0.675479	 0.115938	 0.509275	-0.115053	-0.000000	 0.000000	 0.000000	 0.233866	 1.021096	-0.231085	 3.525649	 1.713002	 9.569609	-79.292290	-7.470252	 0.452338	-29.662070	 30.017120	-61.317310	 17.085570	 15.605720	-10.628930	 3.822837	 8.140537	 5.332902	 3.804534	 8.184171	 5.244710	-2.673658	 1.998166	-14.446530	 87.863960	-0.680919	 11.749840	 43.076930	 37.058750	 55.287440	-24.090960	-7.768395	 15.530910
-0.137780	 1.057850	 0.414540	-4.021270	 6.878730	 0.937887	 4.299370	-16.168200	 3.955477	-0.002320	 0.092782	 0.000149	-2.349707	 7.505352	 2.293923	 0.000161	 1.547171	-0.000370	 0.189241	-9.604678	 15.906470	-0.365973	 35.847940	 0.118995	 11.856450	-1.212791	 1.058095	-0.000354	-14.883340	 0.639153	 0.116928	 0.491391	-0.147609	-0.000000	 0.000000	 0.000000	 0.237338	 0.983984	-0.296052	 3.307401	 1.298797	 9.465587	-79.175420	-6.910328	 0.795371	-28.889040	 29.816250	-61.023740	 15.816470	 15.835910	-9.668138	 4.611276	 9.412899	 5.465039	 4.598142	 9.454089	 5.526302	-2.468908	 2.189474	-14.375390	 87.526140	-0.023284	 12.313020	 43.951590	 36.277300	 53.783730	-20.278180	-9.959512	 13.301250
